<?xml version="1.0" encoding="UTF-8"?>
<svg width="752px" height="690px" viewBox="0 0 752 690" version="1.1" xmlns="http://www.w3.org/2000/svg" xmlns:xlink="http://www.w3.org/1999/xlink">
    <title>farcaster</title>
    <g id="Page-1" stroke="none" stroke-width="1" fill="none" fill-rule="evenodd">
        <g id="farcaster" transform="translate(0.889, 0.556)" fill="#FFFFFF" fill-rule="nonzero">
            <path d="M128.889,0 L613.333,0 L613.333,688.888 L542.222,688.888 L542.222,373.333 L541.525,373.333 C533.665,286.121 460.369,217.777 371.111,217.777 C281.853,217.777 208.557,286.121 200.697,373.333 L200,373.333 L200,688.888 L128.889,688.888 L128.889,0 Z" id="Path"></path>
            <path d="M0,97.777 L28.889,195.555 L53.333,195.555 L53.333,591.111 C41.06,591.111 31.111,601.06 31.111,613.333 L31.111,640 L26.667,640 C14.394,640 4.444,649.949 4.444,662.222 L4.444,688.888 L253.333,688.888 L253.333,662.222 C253.333,649.949 243.384,640 231.111,640 L226.667,640 L226.667,613.333 C226.667,601.06 216.717,591.111 204.444,591.111 L177.778,591.111 L177.778,97.777 L0,97.777 Z" id="Path"></path>
            <path d="M546.667,591.111 C534.393,591.111 524.444,601.06 524.444,613.333 L524.444,640 L520,640 C507.727,640 497.778,649.949 497.778,662.222 L497.778,688.888 L746.667,688.888 L746.667,662.222 C746.667,649.949 736.717,640 724.444,640 L720,640 L720,613.333 C720,601.06 710.051,591.111 697.778,591.111 L697.778,195.555 L722.222,195.555 L751.111,97.777 L573.333,97.777 L573.333,591.111 L546.667,591.111 Z" id="Path"></path>
        </g>
    </g>
</svg>