<?xml version="1.0" encoding="UTF-8"?>
<svg width="200px" height="200px" viewBox="0 0 200 200" version="1.1" xmlns="http://www.w3.org/2000/svg" xmlns:xlink="http://www.w3.org/1999/xlink">
    <title>dailygwei</title>
    <g id="dailygwei" stroke="none" stroke-width="1" fill="none" fill-rule="evenodd">
        <g id="Group" fill="#FFFFFF" fill-rule="nonzero">
            <path d="M37.2638841,156.899032 C43.7610116,141.077053 50.0335631,125.601095 56.5009356,110.205446 C57.8830153,106.915374 57.7606929,104.24675 55.9305919,101.116784 C49.4389048,90.0143151 51.6293544,81.5867797 62.6985843,74.6539572 C80.4517677,63.5348451 98.286652,52.5438347 116.059904,41.4560544 C118.964183,39.644233 121.700546,37.9743805 124.699564,41.2709754 C125.872096,42.5598597 127.279652,42.3048397 128.617382,41.3865084 C129.361464,40.8757126 130.18287,40.4504983 130.845714,39.8522484 C143.790276,28.1693062 159.664262,22.4294034 176.068072,17.5767791 C180.796914,16.1778994 183.005275,17.2273052 184.590568,21.7854786 C188.454681,32.8961287 188.718265,33.4857864 177.436452,36.2727365 C163.362248,39.7494811 151.205489,46.082361 140.833685,56.07672 C138.804584,58.0319885 137.226357,59.3922751 139.139853,62.2818439 C140.220732,63.9141056 140.039048,65.8261145 138.176604,67.0050852 C135.894334,68.4498034 134.342479,66.8999351 133.154986,65.2996285 C129.724034,60.6759997 126.274937,56.0501205 123.15494,51.2210238 C121.067689,47.9903774 119.251287,47.4108399 115.78577,49.6176948 C99.3379078,60.091731 82.697349,70.2682122 66.1767235,80.6309395 C58.5405512,85.4208023 57.1869829,90.7829078 62.3827368,98.2117718 C65.5408816,102.727294 65.7499821,106.593962 63.5861201,111.574392 C57.4339484,125.734488 51.989553,140.197018 45.7979902,154.339205 C43.6190017,159.316251 44.7267817,161.62063 49.7304703,162.728576 C50.0816458,162.806353 50.4204156,162.946268 50.758406,163.074254 C60.0561156,166.594751 60.2158226,166.67726 64.8288608,157.872484 C66.8308266,154.051392 69.6877862,154.354091 73.0684155,154.80758 C83.8169891,156.249209 94.5611332,157.771936 105.347622,158.872651 C114.174504,159.77342 117.51609,157.395469 120.124143,148.926152 C123.289984,138.64577 126.112925,128.260699 129.352839,118.004157 C130.67574,113.816208 129.857253,110.364961 127.462364,106.905911 C123.878257,101.729295 120.486249,96.4225574 116.940523,91.2193427 C115.269083,88.7666038 114.595756,86.3913798 116.657266,83.8352168 C120.273616,79.3511083 123.843062,74.8295232 127.49129,70.3711109 C128.841027,68.7216635 130.60996,67.5892548 132.661917,69.0464437 C134.999617,70.7066035 134.291427,72.7918451 132.82844,74.668563 C130.504705,77.6494471 128.166009,80.6238417 125.708691,83.496044 C123.568762,85.9972507 123.12074,88.2429281 125.27198,91.1412529 C128.377448,95.3251112 131.007063,99.8524784 133.927728,104.174887 C137.056516,108.805252 137.765005,113.765884 136.213316,119.060989 C132.935785,130.24554 129.728943,141.452106 126.287112,152.587187 C123.405024,161.911368 116.57626,166.729178 106.598042,165.903821 C96.3386243,165.055103 86.1010495,163.722039 75.9357079,162.098567 C72.0763556,161.482194 70.3285869,162.471123 68.9540703,165.909966 C67.3007092,170.046409 66.4694509,175.218834 59.8498858,174.706592 C58.129683,174.573481 57.6990426,176.900073 57.1150324,178.36684 C54.8575084,184.036655 52.5379537,189.686655 50.4723961,195.425574 C48.9584742,199.631906 46.6385531,200.973184 42.1929851,199.300653 C25.9790851,193.200581 26.9783604,196.20785 33.166572,179.987585 C34.0618024,177.64108 34.9975197,175.300226 36.0895102,173.03968 C37.0619827,171.02663 38.7415824,169.938105 40.9546064,171.076707 C42.8573711,172.055713 43.062491,173.782987 42.3094519,175.714941 C40.5578353,180.208793 38.8625113,184.7242 37.1801409,189.137053 C43.0647791,192.957784 43.7834686,192.782383 46.0422697,187.189688 C47.7230141,183.02824 49.2935612,178.821643 51.0492247,174.691905 C52.1325084,172.143743 51.4864163,170.655518 48.8359691,169.780348 C46.4355071,168.987686 44.1197003,167.946774 41.7501053,167.058427 C35.0273585,164.53803 34.7113783,163.888142 37.2638841,156.899032 M148.216124,35.7889503 C142.277067,40.1353301 136.33801,44.4816927 130.480523,48.7683506 C131.915579,53.7149023 134.251123,52.8927336 136.806466,50.4953128 C147.789034,40.1914535 160.399189,32.8917098 175.347774,29.8654965 C175.878527,29.7580465 176.39684,29.587245 176.917475,29.4344335 C178.375122,29.0066567 179.025692,28.125226 178.520349,26.6045693 C178.032024,25.1352888 176.947297,24.5617982 175.560075,25.1136681 C166.703669,28.6369414 156.919408,29.7858778 148.216124,35.7889503 Z" id="Shape"></path>
            <path d="M18.3441855,144.928669 C21.8987869,151.233174 25.7887508,156.814572 30.2673738,161.992811 C31.8459444,163.818009 33.3455026,165.962727 30.8857253,168.067386 C28.4290197,170.169414 26.5349415,168.30567 24.9521831,166.529773 C11.550557,151.492671 3.37096884,133.861219 0.868983807,113.989144 C-4.91776734,68.027811 18.5419874,26.5855809 60.9383187,8.31997181 C89.4119478,-3.94733197 117.85805,-2.3865573 145.649161,11.2689846 C147.377775,12.1183865 149.400497,12.7978157 149.901997,15.0477794 C150.196302,16.3681901 149.836961,17.5185798 148.699125,18.3775033 C146.926497,19.715691 145.30493,18.8838022 143.683659,18.0667966 C133.850922,13.1117771 123.600837,9.5954729 112.596695,8.24659524 C82.1302687,4.51211848 55.8811873,13.3469701 34.1307484,34.9065346 C15.473877,53.3996224 6.66629575,76.2480087 6.88592423,102.368725 C7.01125031,117.270619 10.9557554,131.43038 18.3441855,144.928669 Z" id="Path"></path>
            <path d="M88.5550158,199.651117 C79.7109011,198.406528 71.499228,196.640401 63.6591787,193.41355 C61.1789796,192.39269 57.9607211,191.394775 59.3249006,187.858922 C60.7243625,184.231657 63.7477703,185.925618 66.233174,186.81743 C98.5193851,198.402203 128.758031,194.393705 156.304077,173.880346 C194.448526,145.474481 204.294818,90.8875603 179.114356,50.4613329 C177.472055,47.8247039 173.451789,44.424963 177.614925,41.7501876 C181.744009,39.0972672 183.243276,44.1299268 184.881573,46.7654005 C222.97089,108.038054 185.300726,189.121932 114.234751,199.120995 C105.81969,200.305037 97.451028,200.088703 88.5550158,199.651117 Z" id="Path"></path>
            <path d="M101.144391,146.106338 C104.480838,146.301189 106.401774,144.819385 107.199355,142.175969 C109.774589,133.641205 112.308456,125.090677 114.643067,116.48758 C115.75845,112.377355 113.101495,109.568719 110.122879,107.581711 C108.077971,106.217551 105.506494,106.557683 104.447574,109.458163 C102.002062,116.156403 97.4641311,122.569685 101.837834,130.208591 C102.954426,132.158812 103.142606,134.634128 100.563417,135.705928 C97.5929715,136.940279 96.5916249,134.540795 95.5382597,132.35874 C92.7046266,126.488905 91.5398042,120.691187 94.9990792,114.556022 C96.0865574,112.627346 97.1137821,110.43717 97.0394455,107.901427 C93.5670028,106.275424 91.8626069,107.855211 90.5671807,110.973757 C86.3241972,121.188107 81.942391,131.34455 77.6153327,141.523865 C77.126978,142.67274 76.7375821,143.874496 76.1447641,144.965844 C75.0084184,147.057841 73.7124525,149.331821 70.8241208,147.832042 C68.3915812,146.568959 68.7957787,144.36269 69.7244376,142.228455 C70.8635275,139.61061 71.9979769,136.990669 73.1229355,134.366669 C77.2712902,124.690364 81.5303827,115.059212 85.5011462,105.310203 C87.0020857,101.625076 89.3105732,100.057487 93.2219153,100.151196 C98.2069137,100.270625 103.20054,100.118453 108.188545,100.002298 C115.453293,99.8331007 123.536174,109.041496 121.748618,116.202931 C119.289187,126.056177 116.375726,135.809903 113.267879,145.480788 C111.525972,150.901212 106.605475,153.623146 101.085313,152.879297 C94.9178472,152.048288 88.7726658,151.049241 82.6222079,150.094759 C80.3550554,149.742907 78.2198644,148.921162 78.547405,146.147036 C78.9239438,142.958192 81.4491025,142.957406 83.8638007,143.328709 C89.490354,144.193901 95.1037064,145.145175 101.144391,146.106338 Z" id="Path"></path>
        </g>
    </g>
</svg>