<?xml version="1.0" encoding="UTF-8"?>
<svg width="200px" height="200px" viewBox="0 0 200 200" version="1.1" xmlns="http://www.w3.org/2000/svg" xmlns:xlink="http://www.w3.org/1999/xlink">
    <title>ethstaker</title>
    <g id="ethstaker" stroke="none" stroke-width="1" fill="none" fill-rule="evenodd">
        <path d="M143.043652,51.2520695 L165,38.5658113 L165,0 L85.3372046,47.2889073 L36.103324,18.1808775 L36.103324,21.6887417 L85.2545455,51.0658113 L85.2545455,72.9925497 L36.103324,43.8948675 L36.103324,47.4027318 L36.103324,47.4027318 L36.103324,72.0095199 L36,72.0095199 L36,75.5070364 L85.3372046,104.946192 L85.3888666,131.394868 L37.7565078,103.156043 L36.154986,102.121275 L36.154986,138.203642 L85.0685623,167.435844 L85.0685623,200 L165,153.249172 L165,64.4453642 L143.043652,51.2520695 Z M132.535603,133.474752 L111.095875,120.591887 L132.711254,108.298841 L132.535603,133.474752 Z M59.2582299,61.134106 L38.6760913,73.5513245 L38.6760913,48.9238411 L59.2582299,61.134106 Z M41.1455346,74.9896523 L61.7380056,62.5724338 L85.3268722,76.6556291 L85.3785342,101.179636 L41.1455346,74.9896523 Z M107.903164,122.413079 L131.326712,136.475579 L85.1925511,163.741722 L39.3270324,136.672185 L63.6288346,122.18543 L85.450861,135.233858 L107.903164,122.413079 Z M38.6760913,107.222682 L61.0560673,120.602235 L38.6760913,134.054222 L38.6760913,107.222682 Z M115.404485,93.6879139 L115.404485,67.1978477 L139.9336,53.0422185 L162.15859,66.307947 L115.404485,93.6879139 Z" id="Shape" fill="#FFFFFF" fill-rule="nonzero"></path>
    </g>
</svg>