<?xml version="1.0" encoding="UTF-8"?>
<svg width="200px" height="200px" viewBox="0 0 200 200" version="1.1" xmlns="http://www.w3.org/2000/svg" xmlns:xlink="http://www.w3.org/1999/xlink">
    <title>gitcoin</title>
    <g id="gitcoin" stroke="none" stroke-width="1" fill="none" fill-rule="evenodd">
        <path d="M151,79.0769231 C157.5,87.7948718 160.75,99.7820513 160.75,110.679487 C160.75,121.576923 157.5,132.474359 151,141.192308 L164,151 C172.666667,139.012821 177,124.846154 177,109.589744 C177,94.3333333 171.583333,79.0769231 162.916667,66 L155.333333,72.5384615 L151,79.0769231 Z" id="Path" fill="#FFFFFF"></path>
        <path d="M176.825194,160.869565 L131.154278,126.086957 C134.416487,121.73913 136.591292,116.304348 136.591292,110.869565 C136.591292,105.434783 135.503889,100 132.241681,95.6521739 L153.989736,76.0869565 L176.825194,54.3478261 C177.912597,53.2608696 177.912597,50 176.825194,48.9130435 L174.650389,46.7391304 C158.339347,30.4347826 136.591292,20.6521739 113.755834,19.5652174 L113.755834,6.52173913 C113.755834,5.43478261 113.755834,4.34782609 113.755834,4.34782609 C113.755834,3.26086957 112.668431,3.26086957 112.668431,2.17391304 C112.668431,1.08695652 111.581028,1.08695652 110.493626,1.08695652 C109.406223,1.08695652 109.406223,0 108.31882,0 C107.231417,0 106.144015,0 106.144015,1.08695652 C105.056612,1.08695652 105.056612,2.17391304 103.969209,2.17391304 C102.881806,3.26086957 102.881806,4.34782609 101.794404,4.34782609 C101.794404,5.43478261 101.794404,6.52173913 101.794404,6.52173913 L101.794404,19.5652174 C96.3573897,20.6521739 90.9203759,20.6521739 85.4833621,22.826087 L85.4833621,6.52173913 C85.4833621,5.43478261 85.4833621,4.34782609 85.4833621,4.34782609 C85.4833621,3.26086957 84.3959593,3.26086957 84.3959593,2.17391304 C83.3085565,1.08695652 83.3085565,1.08695652 82.2211538,1.08695652 C81.133751,1.08695652 81.133751,0 80.0463482,0 C78.9589455,0 77.8715427,0 77.8715427,1.08695652 C76.7841399,1.08695652 76.7841399,2.17391304 75.6967372,2.17391304 C74.6093344,3.26086957 74.6093344,4.34782609 74.6093344,4.34782609 C74.6093344,5.43478261 74.6093344,6.52173913 74.6093344,6.52173913 L74.6093344,27.173913 C56.1234874,35.8695652 40.8998486,50 31.1132237,68.4782609 C21.3265988,86.9565217 19.1517933,107.608696 22.4140016,128.26087 C26.7636127,148.913043 37.6376403,166.304348 52.8612791,179.347826 C68.0849178,192.391304 88.7455704,200 109.406223,200 L175.737792,200 C177.912597,200 179,197.826087 179,196.73913 L179,163.043478 C179,163.043478 177.912597,161.956522 176.825194,160.869565 Z M110.493626,184.782609 C94.1825842,184.782609 77.8715427,179.347826 65.9101123,169.565217 C52.8612791,159.782609 44.1620569,145.652174 39.8124459,129.347826 C35.4628348,113.043478 36.5502376,96.7391304 43.0746542,81.5217391 C49.5990708,66.3043478 60.4730984,54.3478261 74.6093344,45.6521739 L74.6093344,69.5652174 C74.6093344,70.6521739 74.6093344,71.7391304 74.6093344,71.7391304 C74.6093344,72.826087 75.6967372,72.826087 75.6967372,73.9130435 C76.7841399,75 76.7841399,75 77.8715427,75 C78.9589455,75 78.9589455,76.0869565 80.0463482,76.0869565 C81.133751,76.0869565 82.2211538,76.0869565 82.2211538,75 C83.3085565,75 83.3085565,73.9130435 84.3959593,73.9130435 C85.4833621,72.826087 85.4833621,72.826087 85.4833621,71.7391304 C85.4833621,70.6521739 85.4833621,69.5652174 85.4833621,69.5652174 L85.4833621,39.1304348 C94.1825842,35.8695652 101.794404,34.7826087 110.493626,34.7826087 C126.804667,34.7826087 142.028306,40.2173913 155.077139,50 C156.164542,51.0869565 156.164542,52.173913 155.077139,53.2608696 L120.280251,85.8695652 C117.018042,84.7826087 113.755834,83.6956522 110.493626,83.6956522 C107.231417,83.6956522 102.881806,84.7826087 99.619598,85.8695652 C96.3573897,86.9565217 93.0951814,90.2173913 90.9203759,92.3913043 C88.7455704,95.6521739 86.5707648,98.9130435 85.4833621,102.173913 C84.3959593,105.434783 84.3959593,109.782609 84.3959593,113.043478 C85.4833621,117.391304 86.5707648,120.652174 88.7455704,123.913043 C90.9203759,127.173913 93.0951814,129.347826 96.3573897,131.521739 C99.619598,133.695652 102.881806,134.782609 107.231417,135.869565 C110.493626,136.956522 114.843237,135.869565 118.105445,134.782609 L162.688959,168.478261 C162.688959,168.478261 163.776361,169.565217 163.776361,169.565217 L163.776361,181.521739 C163.776361,182.608696 162.688959,183.695652 161.601556,183.695652 L110.493626,184.782609 Z M121.367653,110.869565 C121.367653,113.043478 120.280251,115.217391 119.192848,116.304348 C118.105445,118.478261 115.93064,119.565217 114.843237,120.652174 C112.668431,121.73913 110.493626,121.73913 108.31882,121.73913 C106.144015,121.73913 103.969209,120.652174 102.881806,118.478261 C101.794404,117.391304 100.707001,115.217391 99.619598,113.043478 C99.619598,110.869565 99.619598,108.695652 100.707001,106.521739 C101.794404,104.347826 102.881806,103.26087 105.056612,102.173913 C107.231417,101.086957 108.31882,100 110.493626,100 C113.755834,100 115.93064,101.086957 118.105445,103.26087 C120.280251,104.347826 121.367653,107.608696 121.367653,110.869565 Z" id="Shape" fill="#FFFFFF"></path>
    </g>
</svg>