<?xml version="1.0" encoding="UTF-8"?>
<svg width="200px" height="200px" viewBox="0 0 200 200" version="1.1" xmlns="http://www.w3.org/2000/svg" xmlns:xlink="http://www.w3.org/1999/xlink">
    <title>giveth</title>
    <g id="giveth" stroke="none" stroke-width="1" fill="none" fill-rule="evenodd">
        <path d="M85.7398962,200 C80.4308011,198.63874 75.566609,197.354241 70.7528572,195.90182 C56.3633728,191.560131 43.8168807,183.981314 32.7189211,173.912307 C31.8926467,173.162649 31.2297849,172.23209 30,170.823126 C42.4092626,158.547734 54.7171296,146.419803 66.9704955,134.236825 C77.1162515,124.149356 87.2578097,114.056047 97.2668815,103.833203 C99.8901265,101.153942 102.611958,99.9879673 106.44856,100.006254 C137.356663,100.153554 168.265803,100.079113 199.638123,100 C200.101608,104.287648 200.101608,108.647699 199.742308,113.623062 C199.259702,114.717566 199.10667,115.191267 199.017263,115.676741 C191.461165,156.699061 167.474222,183.295317 128.265869,196.423407 C123.699195,197.952467 118.913256,198.823749 114.228981,200 C104.88861,200 95.5482317,200 85.7398962,200 Z" id="Path" fill="#FFFFFF" fill-rule="nonzero"></path>
        <path d="M109.128011,0 C116.556221,1.67944768 123.720018,2.78839429 130.427362,5.1832259 C138.749483,8.15460887 146.693737,12.1904903 156,16.2953311 C150.565064,21.5778517 146.430455,25.8522815 141.954541,29.7305255 C141.0621,30.5037852 138.589739,30.2998325 137.31114,29.6398702 C117.122459,19.2194028 96.2204035,17.4134891 74.6228893,24.2856942 C28.6081956,38.9273148 6.6278739,92.5197704 28.767865,136.408724 C30.7223174,140.283114 30.314085,142.44203 27.2569286,145.175787 C23.69714,148.359012 20.6163356,152.081007 16.9215227,156 C7.82621306,142.486115 2.88742712,128.43192 0.272888534,113.168493 C-0.090027109,104.984084 -0.090027109,96.9627991 0.267306566,88.2995691 C6.99241986,44.2365047 36.801492,11.7498764 78.8559402,2.4261581 C82.7738792,1.55752989 86.7175992,0.805935235 90.6493535,0 C96.6532652,0 102.65717,0 109.128011,0 Z" id="Path" fill="#FFFFFF" fill-rule="nonzero"></path>
        <path d="M172.473483,43.033287 C183.426037,44.8293324 189.506238,52.0916463 188.966926,62.3390712 C188.489329,71.4139754 181.014019,78.5889042 171.624688,78.98442 C162.545817,79.3668566 154.543768,72.6673416 153.183216,63.4405027 C151.645396,53.01142 159.936728,42.3260288 172.473483,43.033287 Z" id="Path" fill="#FFFFFF" fill-rule="nonzero"></path>
    </g>
</svg>