<?xml version="1.0" encoding="UTF-8"?>
<svg width="200px" height="200px" viewBox="0 0 200 200" version="1.1" xmlns="http://www.w3.org/2000/svg" xmlns:xlink="http://www.w3.org/1999/xlink">
    <title>nodeset</title>
    <g id="nodeset" stroke="none" stroke-width="1" fill="none" fill-rule="evenodd">
        <path d="M54.9963688,165.910859 C54.9845347,169.238319 54.980227,172.199321 54.9581652,175.160209 C54.9468666,176.676891 54.4769073,177.8837 52.6753805,177.90962 C45.2176082,178.016986 37.7224634,178.43497 30.5294614,175.824043 C19.1657945,171.699282 12.9817455,162.743442 12.8011964,149.799054 C12.6601108,139.683749 12.7812204,129.565019 12.7580959,119.447872 C12.7425635,112.653111 10.8498977,110.646538 3.93059196,110.585702 C1.06586603,110.560516 -0.106639234,109.660686 0.00756755012,106.72556 C0.184939669,102.167212 0.130175319,97.5955863 0.0286405853,93.0327632 C-0.0254083109,90.6039132 0.745493459,89.5026166 3.40738069,89.4017813 C11.3800686,89.0997627 12.7489765,87.5599293 12.7592923,79.5766189 C12.7718874,69.8295914 12.5278847,60.074733 12.8449041,50.3376661 C13.1681571,40.4090751 16.207725,31.5942671 25.6098879,26.3364418 C31.3766882,23.1115736 37.6653884,21.965916 44.2768518,22 C54.9882665,22.0572365 54.9886034,21.9632094 54.9799253,32.41559 C54.9778798,34.8831799 54.9163724,37.3526566 54.9939021,39.8178117 C55.0657342,42.1016528 54.1993171,43.0763065 51.7541796,43.2133787 C42.796885,43.7155417 39.540548,47.2811232 39.5580401,56.0279205 C39.5747972,64.4099772 39.3995789,72.7932032 39.4866926,81.1740906 C39.5658914,88.7929308 38.4999492,95.789067 30.1152949,99.9483134 C40.6062452,105.28968 39.4582835,114.598488 39.5842729,123.432137 C39.7019038,131.679365 38.719212,139.959722 40.1188963,148.165798 C41.0505475,153.627852 44.1108866,156.235356 49.7223139,156.76232 C55.000893,157.258054 55.0010469,157.258054 55,162.583467 C55,163.570437 54.9977422,164.557385 54.9963688,165.910859 Z" id="Path" fill="#FFFFFF" fill-rule="nonzero"></path>
        <path d="M160.072307,74.0734031 C160.067705,67.5319906 160.13858,61.3595132 160.040385,55.1896855 C159.909606,46.9726144 156.569148,43.574676 148.26861,43.1897925 C146.270164,43.0971209 144.932858,42.8388696 145.002604,40.3582323 C145.144776,35.3012688 145.082035,30.2385962 145.100196,25.1782585 C145.105801,23.6159965 145.205967,22.0795294 147.327912,22.0644047 C155.026497,22.0095154 162.748948,21.5149586 170.160854,24.4583723 C180.458915,28.5479382 186.557838,37.2304984 186.675344,48.6000523 C186.781183,58.8433715 186.700659,69.0884937 186.725814,79.3327508 C186.74541,87.3163765 188.495788,89.2117803 196.406222,89.396016 C198.943938,89.4551226 200.038999,90.3439272 199.998941,92.8733445 C199.9227,97.6857856 199.930105,102.500612 199.98388,107.31355 C200.010311,109.676422 198.943392,110.503578 196.594022,110.60358 C188.342348,110.95487 186.758102,112.657425 186.734974,120.841179 C186.708451,130.221499 186.760061,139.602135 186.708178,148.982252 C186.612455,166.28882 177.268661,176.367696 159.857233,177.814702 C156.025127,178.133189 152.149352,177.912341 148.294996,177.997908 C146.182826,178.044818 145.044655,177.310452 145.077991,175.010213 C145.151327,169.950859 145.149402,164.888836 145.069504,159.829606 C145.033138,157.526406 146.182712,156.966691 148.278625,156.829319 C156.813605,156.26983 160.016243,152.866755 160.056335,144.446645 C160.097451,135.806997 160.043472,127.166921 160.08198,118.527252 C160.115737,110.953683 161.334854,103.913922 169.837342,99.9996905 C161.370958,96.0817744 160.133909,89.0601103 160.078631,81.4785499 C160.06153,79.1336623 160.07372,76.788537 160.072307,74.0734031 Z" id="Path" fill="#FFFFFF" fill-rule="nonzero"></path>
        <path d="M142.887227,65.3389031 C148.485376,78.303286 142.612381,89.9447114 129.363693,92.6838294 C120.009916,94.6176883 110.143071,87.4544416 108.267271,77.3680063 C106.551268,68.1406775 113.317034,58.0345579 122.290665,56.4187026 C131.032376,54.8446041 137.869764,57.6853398 142.887227,65.3389031 Z" id="Path" fill="#FFFFFF" fill-rule="nonzero"></path>
        <path d="M72.0068176,143.986984 C60.9300132,142.705849 54.0653099,134.19466 55.1033275,123.366457 C55.986312,114.155492 64.8426307,106.491446 73.9853581,107.026415 C84.5517424,107.644692 92.5360346,116.364014 91.971856,126.668723 C91.407031,136.984983 83.0694284,144.352421 72.0068176,143.986984 Z" id="Path" fill="#FFFFFF" fill-rule="nonzero"></path>
        <path d="M56.2561794,81.9102559 C53.0367421,71.1916237 56.0702984,62.6323408 64.6124018,58.2681211 C71.5753143,54.7107145 78.4102157,55.3921971 84.6146875,59.9311948 C90.5027688,64.2387421 92.8601473,70.3541962 91.7223662,77.4353649 C90.5023125,85.0285782 85.8600243,90.0415883 78.3735534,92.2139133 C69.4331056,94.8081506 61.002696,90.8814717 56.2561794,81.9102559 Z" id="Path" fill="#FFFFFF" fill-rule="nonzero"></path>
        <path d="M117.194988,141.578878 C110.35717,137.14491 106.937286,129.774139 108.292446,122.786913 C109.935735,114.314182 115.104328,109.098166 123.641522,107.297032 C130.182495,105.91705 138.067541,109.456716 142.148438,115.604935 C146.527201,122.201986 145.787404,131.956405 140.449809,138.00199 C134.816751,144.382227 125.818185,145.833242 117.194988,141.578878 Z" id="Path" fill="#FFFFFF" fill-rule="nonzero"></path>
    </g>
</svg>