<?xml version="1.0" encoding="UTF-8"?>
<svg width="200px" height="200px" viewBox="0 0 200 200" version="1.1" xmlns="http://www.w3.org/2000/svg" xmlns:xlink="http://www.w3.org/1999/xlink">
    <title>obol</title>
    <g id="obol" stroke="none" stroke-width="1" fill="none" fill-rule="evenodd">
        <path d="M139.759769,156 C125.812501,156 111.575214,150.722388 97.2822671,140.219766 C86.5545008,132.353027 77.8627252,125.269455 70.1904095,119.018729 L69.4785452,118.434276 L65.400705,122.262444 C53.2521396,133.65928 43.3856413,140.722395 31.7380174,140.722395 C14.8290423,140.72824 0,126.940991 0,111.213358 C0,94.5564437 15.9510342,81.6108071 29.6756615,81.6108071 C44.0301275,81.6108071 55.0332652,88.24435 68.7198091,98.9339975 C87.9020629,80.9883645 106.967137,63.6008842 121.406559,54.0275422 C139.941397,41.7394154 168.436476,38.7002591 187.026975,56.6575812 C208.119251,77.0286946 200.347333,116.245499 185.963572,133.244318 C180.59383,139.588556 169.022373,150.810056 151.838027,154.646991 C147.874276,155.540915 143.823553,155.994678 139.759769,156 Z M80,107.855325 C87.3418006,113.865074 95.6478538,120.635587 105.712422,128.055248 L105.712422,128.055248 C118.628716,137.575089 130.000447,141 139.669349,141 C157.002446,141 168.863631,129.999751 174.408815,123.417226 C189.959951,104.956194 186.387234,76.2321799 176.483863,66.6183442 C161.958528,52.5192269 140.296553,58.3204262 129.279456,65.6578419 C116.137486,74.4110439 98.2211476,90.7483961 80,107.855325 Z M29.8879897,96 C23.3256937,96 15,103.090802 15,111.041363 C15,118.723065 23.2350381,126 31.9409004,126 C37.7896491,126 44.37534,121.899153 55.4470212,111.378176 L58,108.952531 C47.3815968,100.715383 39.2284412,96 29.8879897,96 Z" id="Shape" fill="#FFFFFF" fill-rule="nonzero"></path>
    </g>
</svg>