<?xml version="1.0" encoding="UTF-8"?>
<svg width="200px" height="200px" viewBox="0 0 200 200" version="1.1" xmlns="http://www.w3.org/2000/svg" xmlns:xlink="http://www.w3.org/1999/xlink">
    <title>octant</title>
    <g id="octant" stroke="none" stroke-width="1" fill="none" fill-rule="evenodd">
        <path d="M12.6773715,69.5296746 C9.24529816,73.9344519 6.39829239,78.6769532 4.29485069,83.8684143 C-0.296067638,95.1992237 0.0416593483,106.539456 4.49209339,117.759425 C7.51100388,125.370397 12.296,131.515467 18.9395855,136.658365 C31.4629422,146.352866 45.3948924,148.287608 59.945532,144.467814 C70.6204215,141.665485 79.3982341,135.101742 85.325672,125.295203 C86.3748933,123.559355 87.338144,121.606813 88.9727977,120.482243 C90.1948727,120.765126 90.34453,121.603692 90.5645883,122.287355 C95.6332195,138.034407 105.93609,149.538407 119.490246,158.498326 C127.964762,164.100385 137.265257,167.69694 147.24623,168.637865 C154.017694,169.276181 155.811589,170.122394 155.883842,160.995701 C155.963851,150.891694 154.911886,140.742464 156.604845,130.677551 C157.31073,126.480997 161.612278,123.318247 165.865302,123.468298 C171.542042,123.668572 177.227117,123.623235 182.908278,123.707249 C185.104833,123.739717 186.790244,122.881482 188.069987,121.081568 C191.654768,116.039752 195.324442,111.057872 198.859774,105.981767 C200.350627,103.841169 200.49423,101.775581 198.602802,99.468721 C195.968006,96.255215 193.943323,92.5383716 191.302902,89.3302611 C189.209762,86.7870966 187.558358,83.2637161 183.587819,83.1988614 C176.135472,83.0770998 168.676967,83.0794094 161.225894,83.2477604 C157.737443,83.3265638 156.175262,85.3415118 156.257192,88.9895316 C156.410773,95.8270604 156.347271,102.672944 156.218299,109.5124 C156.094559,116.073683 152.629305,118.472876 146.111387,117.654245 C134.797412,116.23325 130.259775,101.052939 135.29823,92.065925 C138.124574,87.0246196 142.673473,83.8892546 148.712428,83.3758575 C155.534013,82.7959457 155.776053,82.4662751 155.776261,75.9722371 C155.776609,63.3027971 155.811937,50.6333564 155.82203,37.9639224 C155.826267,32.6610796 154.974069,31.6885398 149.607084,32.0756215 C124.325195,33.8990337 106.824704,47.3655549 95.038677,69.1535181 C93.0495176,72.8307335 91.5078598,76.7512166 89.8105723,80.4479498 C88.2949246,80.1290241 88.0261459,79.2071644 87.5950346,78.4662 C84.3932113,72.9631593 80.4679777,68.0748994 75.2908858,64.3239058 C65.8234508,57.464434 55.5827162,53.9850907 43.5340576,54.6152712 C31.0543856,55.2679863 21.5637026,60.9035691 12.6773715,69.5296746 Z" id="Shape" fill="#FFFFFF" fill-rule="nonzero"></path>
    </g>
</svg>