<?xml version="1.0" encoding="UTF-8"?>
<svg width="200px" height="200px" viewBox="0 0 200 200" version="1.1" xmlns="http://www.w3.org/2000/svg" xmlns:xlink="http://www.w3.org/1999/xlink">
    <title>optimism</title>
    <g id="optimism" stroke="none" stroke-width="1" fill="none" fill-rule="evenodd">
        <g id="optimism-ethereum-op-logo" fill-rule="nonzero">
            <circle id="Oval" fill="#FFFFFF" cx="100" cy="100" r="100"></circle>
            <path d="M70.84,126.56 C64.88,126.56 60,125.16 56.2,122.36 C52.44,119.52 50.56,115.44 50.56,110.2 C50.56,109.08 50.68,107.76 50.92,106.16 C51.56,102.56 52.48,98.24 53.68,93.16 C57.08,79.4 65.88,72.52 80.04,72.52 C83.88,72.52 87.36,73.16 90.4,74.48 C93.44,75.72 95.84,77.64 97.6,80.2 C99.36,82.72 100.24,85.72 100.24,89.2 C100.24,90.24 100.12,91.56 99.88,93.16 C99.12,97.6 98.24,101.96 97.16,106.16 C95.4,113 92.4,118.16 88.08,121.56 C83.8,124.92 78.04,126.56 70.84,126.56 Z M71.92,115.76 C74.72,115.76 77.08,114.92 79.04,113.28 C81.04,111.64 82.48,109.12 83.32,105.68 C84.48,100.96 85.36,96.88 85.96,93.36 C86.16,92.32 86.28,91.24 86.28,90.12 C86.28,85.56 83.92,83.28 79.16,83.28 C76.36,83.28 73.96,84.12 71.96,85.76 C70,87.4 68.6,89.92 67.76,93.36 C66.84,96.72 65.96,100.8 65.04,105.68 C64.84,106.68 64.72,107.72 64.72,108.84 C64.68,113.48 67.12,115.76 71.92,115.76 Z" id="Shape" fill="#000000"></path>
            <path d="M103.72,125.84 C103.16,125.84 102.76,125.68 102.44,125.32 C102.2,124.92 102.12,124.48 102.2,123.96 L112.56,75.16 C112.64,74.6 112.92,74.16 113.4,73.8 C113.84,73.44 114.32,73.28 114.84,73.28 L134.8,73.28 C140.36,73.28 144.8,74.44 148.16,76.72 C151.56,79.04 153.28,82.36 153.28,86.72 C153.28,87.96 153.12,89.28 152.84,90.64 C151.6,96.4 149.08,100.64 145.24,103.4 C141.48,106.16 136.32,107.52 129.76,107.52 L119.64,107.52 L116.2,123.96 C116.08,124.52 115.84,124.96 115.36,125.32 C114.92,125.68 114.44,125.84 113.92,125.84 L103.72,125.84 Z M130.28,97.16 C132.4,97.16 134.2,96.6 135.76,95.44 C137.36,94.28 138.4,92.64 138.92,90.48 C139.08,89.64 139.16,88.88 139.16,88.24 C139.16,86.8 138.72,85.68 137.88,84.92 C137.04,84.12 135.56,83.72 133.52,83.72 L124.52,83.72 L121.68,97.16 L130.28,97.16 L130.28,97.16 Z" id="Shape" fill="#000000"></path>
        </g>
    </g>
</svg>