<?xml version="1.0" encoding="UTF-8"?>
<svg width="200px" height="200px" viewBox="0 0 200 200" version="1.1" xmlns="http://www.w3.org/2000/svg" xmlns:xlink="http://www.w3.org/1999/xlink">
    <title>rocketfuel</title>
    <g id="rocketfuel" stroke="none" stroke-width="1" fill="none" fill-rule="evenodd">
        <path d="M53.8413901,25.3596935 C67.9177918,4.84680963 90.1221507,-3.97099149 113.062864,1.67331547 C134.791139,7.01932247 152.455357,27.3199103 154.61669,50.2895298 C155.398494,58.5989638 154.742282,67.0407583 154.742282,76 C152.561108,75.2431454 150.810621,74.4364859 148.969862,74.0464164 C146.551529,73.5339141 146.481618,72.1577165 146.533973,70.0665447 C146.71566,62.8145833 146.604093,55.5554288 146.604093,48.0522823 C141.87297,47.7672305 140.489907,45.2002234 139.267652,41.7140525 C130.915781,17.8925651 106.297868,6.26307135 84.1010932,15.5922124 C71.7213168,20.7953665 64.2682699,30.5003913 59.6186924,42.6806722 C58.9367181,44.4672314 57.0940898,45.7872542 56.1387025,47.5128217 C54.7981797,49.9340342 53.0135165,52.4681373 52.790174,55.069139 C52.2890038,60.9060786 52.6331592,66.8140149 52.6331592,73.0734909 C50.4228466,73.9201691 47.9449376,74.8693616 45.0003991,75.9972906 C42.7928913,58.1128289 43.6233621,41.1158223 53.8413901,25.3596935 Z" id="Path" fill="#FFFFFF" fill-rule="nonzero"></path>
        <path d="M135,143.015318 C135.614459,133.765648 136.369925,124.805831 137.292754,115.863148 C138.318615,105.921759 139.498973,95.9961855 140.608153,86.0632857 C141.250834,80.3076104 143.287512,78.9833506 148.766693,80.6955202 C165.414243,85.8977043 173.319922,101.688962 170.406381,114.899885 C169.379274,119.55708 169.110747,124.376419 168.396991,129.106915 C167.22068,136.902303 162.821937,142.047545 155.056332,143.628852 C148.494326,144.96505 141.780003,146.136429 135,143.015318 Z" id="Path" fill="#FFFFFF" fill-rule="nonzero"></path>
        <path d="M56.1282794,82 C57.0247948,83.2771438 58.5576014,84.4771978 58.7218123,85.8430774 C60.9762614,104.593149 63.1112091,123.359106 64.9949981,142.149481 C65.117384,143.370449 62.9636354,145.966849 61.8528425,145.975922 C55.8558993,146.025092 49.724054,146.111437 43.8869949,144.939328 C36.7370213,143.503532 32.7299249,138.282736 31.6169681,131.009483 C30.786024,125.578733 29.9598699,120.145643 29.2528055,114.697741 C27.4581264,100.86966 35.307284,88.5923623 49.9813413,83.0889183 C51.4660924,82.582676 52.2031852,82.3049391 53.1278821,82 C54.052579,81.6950609 55.0884763,81.6950609 56.1282794,82 Z" id="Path" fill="#FFFFFF" fill-rule="nonzero"></path>
        <path d="M82.4128192,146.002794 C89.2404432,148.916716 105.181111,152.925542 116.543659,146.002794 C118.557294,145.822251 121.085378,154.437346 121.085378,158.919854 C121.085378,163.402363 119.950676,179.256642 118.738322,179.703631 C117.525967,180.15062 111.559804,161.798347 111.04584,166.378893 C110.531875,170.959438 107.371459,190.976393 103.980673,194 C101.075703,189.155435 99.4362581,176.428138 92.1640718,176.428138 C84.8918854,176.428138 83.0529696,183.179565 82.4128192,184.902002 C79.2724099,179.032419 77.8081689,173.58653 78.0200964,168.564334 C78.3379876,161.03104 79.3596075,150.205752 82.4128192,146.002794 Z" id="Path-4" fill="#FFFFFF"></path>
        <path d="M76.0084951,67.2839639 C75.5453947,52.8634595 94.1485986,33 99.4260608,33 C104.703523,33 124,50.355371 124,67.7107421 C122.473593,69.4824483 101.51032,70.7954459 97.3937214,70.7954459 C93.2771224,70.7954459 93.9930902,78.3561171 97.3937214,78.3561171 C100.794353,78.3561171 118.0633,77.7328872 122.409158,75.7616677 C123.536757,75.5747783 123.658722,82.2662149 122.409158,82.7669725 C112.49463,84.6618457 100.303329,85.7370563 97.3937214,85.7370563 C94.4841135,85.7370563 94.1806398,92.9467465 97.3937214,92.9467465 C100.606803,92.9467465 118.757572,92.6943795 121.378786,90.7777688 C122.032729,90.4140227 122.001431,95.6395698 121.378786,97.4302719 C120.83992,99.1093647 100.542416,101.025227 97.3937214,101.025227 C94.245027,101.025227 94.7874428,108.136587 97.3937214,108.136587 C100,108.136587 117.279947,107.519375 120.351091,105.913685 C120.943125,105.689001 119.241948,138.424131 117.982024,140.014021 C116.549787,142.659577 104.721583,145 100,145 C95.2784173,145 82.2173603,142.496946 81.6238019,139.241442 C81.0302436,135.985938 77.9383317,105.413192 78.9891934,105.913685 C80.0400552,106.414179 84.5596968,106.933065 85.6871803,106.933065 C86.8146637,106.933065 88.3100008,100.006053 86.2796985,99.5136859 C84.2493961,99.0213185 78.203214,98.1982566 78.203214,96.754064 C78.203214,95.3098715 76.951957,90.1021715 78.203214,90.7777688 C79.454471,91.4533662 84.4334963,91.8380582 86.2796985,91.8380582 C88.1259007,91.8380582 87.8533908,84.3646812 85.6871803,84.3646812 C83.5209697,84.3646812 76.8736017,83.4633389 76.8736017,81.514318 C76.8736017,79.5652971 76.0640464,75.0502719 77.3936587,75.7616677 C78.723271,76.4730636 83.8499924,76.787463 85.6871803,76.6302633 C87.5243681,76.4730636 87.8038121,70.120853 85.6871803,69.5971734 C83.5705485,69.0734938 78.5311966,68.9191697 76.0084951,67.2839639 Z" id="r" fill="#FFFFFF"></path>
    </g>
</svg>