<?xml version="1.0" encoding="UTF-8"?>
<svg width="200px" height="200px" viewBox="0 0 200 200" version="1.1" xmlns="http://www.w3.org/2000/svg" xmlns:xlink="http://www.w3.org/1999/xlink">
    <title>seba</title>
    <g id="seba" stroke="none" fill="none" fill-rule="nonzero">
        <g id="file" fill="#FFFFFF">
            <path d="M37.8169961,13.3203384 C40.2089439,13.3203384 42.6008881,13.3203384 45.1826963,13.3203384 C45.1826963,10.3870386 45.1826963,7.63176218 45.1826963,4.68033333 C47.8821248,4.68033333 50.3991914,4.60750955 52.9044168,4.7471501 C53.3578912,4.7724269 54.1006105,5.64887446 54.1317232,6.16707173 C54.2675115,8.42888889 54.1901111,10.703506 54.1901111,13.1644238 C56.8766156,13.1644238 59.5029181,13.1644238 62.3178343,13.1644238 C62.3178343,15.973485 62.3178343,18.5998452 62.3178343,21.4129887 C65.1280515,21.4129887 67.7545618,21.4129887 70.4971996,21.4129887 C70.4971996,27.0374023 70.4971996,32.4733177 70.4971996,38.10017 C73.3656737,38.10017 76.1212207,38.10017 79.0663571,38.10017 C79.0663571,40.9089353 79.0663571,43.5352082 79.0663571,46.3489883 C81.8774842,46.3489883 84.5032273,46.3489883 87.3154074,46.3489883 C87.3154074,49.1592082 87.3154074,51.7862183 87.3154074,54.5287251 C90.080193,54.5287251 92.6583688,54.5287251 95.4261466,54.5287251 C95.4261466,57.3967591 95.4261466,60.1538823 95.4261466,63.0324694 C100.966628,63.0324694 106.317758,63.0324694 111.861237,63.0324694 C111.861237,60.2775349 111.861237,57.521768 111.861237,54.6488799 C114.625844,54.6488799 117.20399,54.6488799 119.972143,54.6488799 C119.972143,51.911007 119.972143,49.2842499 119.972143,46.4687088 C122.910147,46.4687088 125.666782,46.4687088 128.610592,46.4687088 C128.610592,43.6581559 128.610592,41.0329064 128.610592,38.2201614 C131.421541,38.2201614 134.048301,38.2201614 136.789803,38.2201614 C136.789803,32.5955337 136.789803,27.15966 136.789803,21.533432 C139.52789,21.533432 142.154163,21.533432 144.969002,21.533432 C144.969002,18.7240569 144.969002,16.0979899 144.969002,13.2847747 C147.909326,13.2847747 150.665509,13.2847747 153.538659,13.2847747 C153.538659,10.3902733 153.538659,7.68220234 153.538659,4.82686082 C156.407609,4.82686082 159.161127,4.82686082 162.108352,4.82686082 C162.108352,7.51140078 162.108352,10.267639 162.108352,13.2116425 C164.91936,13.2116425 167.545061,13.2116425 170.268169,13.2116425 C170.268169,18.883223 170.268169,24.3639018 170.268169,29.9673337 C167.619065,29.9673337 165.040907,29.9673337 162.273159,29.9673337 C162.273159,35.5673123 162.273159,41.0503988 162.273159,46.7233045 C159.46409,46.7233045 156.837782,46.7233045 153.995399,46.7233045 C153.995399,49.0298207 153.94437,51.1527493 154.014757,53.271639 C154.056268,54.5215333 153.635732,55.0338834 152.341037,54.9906413 C150.136014,54.9170066 147.926732,54.9703618 145.527825,54.9703618 C145.527825,57.7668546 145.527825,60.5237041 145.527825,63.4692932 C142.719018,63.4692932 140.092804,63.4692932 137.279131,63.4692932 C137.279131,69.0091197 137.279131,74.3627298 137.279131,79.9045973 C134.46942,79.9045973 131.842362,79.9045973 129.133234,79.9045973 C129.133234,82.6703345 129.133234,85.2469879 129.133234,88.0158838 C131.727847,88.0158838 134.354179,88.0158838 137.169268,88.0158838 C137.169268,90.8246967 137.169268,93.4512788 137.169268,96.2634706 C145.5688,96.2634706 153.780075,96.2634706 162.111207,96.2634706 C162.111207,99.0271259 162.111207,101.60488 162.111207,104.37252 C170.440067,104.37252 178.651366,104.37252 187.05298,104.37252 C187.05298,107.309275 187.05298,110.065982 187.05298,113.060429 C191.501455,113.060429 195.762947,113.060429 200.207163,113.060429 C200.389864,121.255713 200.389864,129.450986 200.207163,137.828983 C192.908869,138.011696 185.793288,138.011696 178.491068,138.011696 C178.491068,135.161735 178.491068,132.536902 178.491068,129.73722 C170.09664,129.73722 161.889898,129.73722 153.498112,129.73722 C153.498112,126.930722 153.498112,124.305484 153.498112,121.576725 C145.149894,121.576725 136.990196,121.576725 128.642645,121.576725 C128.642645,118.843088 128.642645,116.217552 128.642645,113.564011 C125.831018,113.564011 123.210468,113.564011 120.418592,113.564011 C120.418592,132.921852 120.418592,152.166236 120.418592,171.598593 C117.625395,171.598593 115.000954,171.598593 112.280702,171.598593 C112.280702,181.32166 112.280702,190.855768 112.280702,200.389864 C106.684515,200.389864 101.088317,200.389864 95.3094183,200.389864 C95.1267057,187.993445 95.1267057,175.597014 95.1267057,163.009887 C92.3940916,163.009887 89.7686635,163.009887 86.9619747,163.009887 C86.9619747,146.425886 86.9619747,130.031379 86.9619747,113.543951 C84.3326503,113.543951 81.8859318,113.543951 79.2472019,113.543951 C79.2472019,116.119658 79.2472019,118.746776 79.2472019,121.559556 C70.8498355,121.559556 62.6395361,121.559556 54.1905333,121.559556 C54.1905333,122.819248 54.1905333,123.899023 54.1905333,124.978798 C54.1905333,129.824466 54.1905333,129.824466 49.2538749,129.824466 C43.2780277,129.824466 37.3021828,129.824466 31.3263357,129.824466 C30.6928846,129.824466 30.0594308,129.824466 29.3060659,129.824466 C29.3060659,132.560745 29.3060659,135.138118 29.3060659,137.863237 C20.8475006,137.863237 12.508584,137.863237 4.03379532,137.863237 C4.03379532,129.723217 4.03379532,121.514452 4.03379532,113.115206 C9.3534078,113.115206 14.7061384,113.115206 20.2469793,113.115206 C20.2469793,110.176916 20.2469793,107.420971 20.2469793,104.550534 C28.5992776,104.550534 36.7625127,104.550534 45.115986,104.550534 C45.115986,101.815861 45.115986,99.1893926 45.115986,96.3765166 C53.5129481,96.3765166 61.7232889,96.3765166 70.1229341,96.3765166 C70.1229341,93.5689887 70.1229341,90.9440604 70.1229341,88.1317673 C73.0622468,88.1317673 75.8186386,88.1317673 78.6606577,88.1317673 C78.6606577,85.3673209 78.6606577,82.7908222 78.6606577,80.0227294 C75.9471871,80.0227294 73.1905692,80.0227294 70.2474791,80.0227294 C70.2474791,74.4849014 70.2474791,69.1318741 70.2474791,63.5904055 C67.4388448,63.5904055 64.8138569,63.5904055 62.0015758,63.5904055 C62.0015758,60.6505099 62.0015758,57.8941715 62.0015758,55.0225747 C59.2370343,55.0225747 56.6591735,55.0225747 53.8922226,55.0225747 C53.8922226,52.2845708 53.8922226,49.6586136 53.8922226,46.8444943 C50.9536534,46.8444943 48.198163,46.8444943 45.2242222,46.8444943 C45.2242222,41.7442097 45.2401949,36.8314331 45.2045314,31.9190308 C45.1999419,31.2870971 44.927446,30.6571111 44.5389657,29.8612359 C43.1146632,29.5439723 41.9338086,29.3030647 40.7455384,29.2581419 C38.3810686,29.1687427 38.2595427,29.0640998 38.2010417,26.680784 C38.0917197,22.2268429 37.9469934,17.7737719 37.8169961,13.3203384 Z" id="Path"></path>
        </g>
    </g>
</svg>