<?xml version="1.0" encoding="UTF-8"?>
<svg width="200px" height="200px" viewBox="0 0 200 200" version="1.1" xmlns="http://www.w3.org/2000/svg" xmlns:xlink="http://www.w3.org/1999/xlink">
    <title>stakecat</title>
    <g id="stakecat" stroke="none" stroke-width="1" fill="none" fill-rule="evenodd">
        <path d="M200,148.373704 C199.917394,148.484662 199.773506,148.520925 199.761005,148.583447 C199.265549,151.058878 198.238471,153.337488 197.069132,155.543021 C196.41911,156.769087 195.642892,157.954059 194.764016,159.027073 C193.520828,160.54484 192.176999,161.988993 190.785186,163.373226 C189.938863,164.214963 188.975884,164.97043 187.967931,165.611866 C186.392904,166.614201 184.782165,167.585601 183.098359,168.384479 C181.665299,169.064397 180.127465,169.549739 178.599332,169.995736 C177.289831,170.377911 175.934332,170.616581 174.587411,170.851412 C173.87609,170.975447 173.139669,170.995225 172.414578,170.995323 C124.359182,171.000471 76.3037867,171.008302 28.2484154,170.975171 C26.2518913,170.973805 24.2384452,170.726628 22.3131656,170.049052 C20.8078853,169.519275 19.2350209,169.158375 17.7743172,168.531367 C16.287196,167.893038 14.862616,167.083018 13.4783593,166.237492 C11.1711644,164.828243 9.17183868,163.024085 7.38112748,161.012543 C5.7995748,159.235962 4.46334076,157.278021 3.35463219,155.159269 C2.0959075,152.753842 1.10223794,150.267318 0.605883387,147.589675 C0.476682216,146.892679 0.269145921,146.210175 0.0429338651,145.512927 C-0.0117205376,108.638617 -0.0117205376,71.7723982 0.0289366449,34.8904374 C0.126110739,34.7925873 0.210002989,34.7180111 0.235010987,34.6272362 C0.574523149,33.3948713 1.2301697,32.3078624 2.11866323,31.4448064 C3.47245577,30.1297711 5.08557269,29.2302446 7.04180613,29.0766873 C9.14758086,28.9113907 11.1653515,29.1376863 12.8671703,30.4980317 C13.9726795,31.3817178 15.0045993,32.3641453 16.0169246,33.355909 C17.7944336,35.0973167 19.5263913,36.8850491 21.2871248,38.6436868 C23.1685725,40.5228956 25.0663217,42.3858092 26.9475213,44.2652628 C28.7210382,46.0371351 30.476087,47.8274658 32.250717,49.5982137 C33.9182829,51.2621344 35.6074525,52.904435 37.2751527,54.5682255 C39.533712,56.8214913 41.7814024,59.0856425 44.0327264,61.3461462 C45.87761,63.1985495 47.710713,65.0629117 49.5779895,66.8924751 C49.8126631,67.1224068 50.2238079,67.2890926 50.5532868,67.2892714 C83.7712571,67.3070164 116.989244,67.3067603 150.207222,67.291512 C150.493502,67.2913818 150.849171,67.1452791 151.054733,66.9460555 C152.448841,65.5949418 153.811177,64.2110747 155.183979,62.8379832 C160.362635,57.6582753 165.539403,52.4766989 170.720566,47.2995019 C175.993808,42.0302909 181.293679,36.7873749 186.529761,31.4815775 C187.688406,30.3075266 189.013451,29.4316381 190.565984,29.1822574 C192.230795,28.9148417 193.956889,28.8662987 195.618982,29.5631289 C197.103557,30.1855283 198.317968,31.081077 199.241638,32.3909792 C199.470737,32.715879 199.745965,33.0082949 200,33.3156368 C200,71.6475088 200,109.979382 200,148.373704 M129.795878,160.273421 C141.595959,160.273421 153.396048,160.283798 165.196089,160.264525 C167.509424,160.260743 169.829531,160.229409 172.133295,160.045421 C173.619597,159.926729 175.119685,159.630482 176.546526,159.194617 C179.165836,158.394486 181.486562,157.030226 183.510915,155.14768 C185.877672,152.946718 187.684451,150.390345 188.754907,147.338091 C189.42259,145.43423 189.848624,143.487202 189.833738,141.444268 C189.800265,137.025509 189.823167,132.606344 189.823167,128.187341 C189.823167,100.363187 189.823167,72.539036 189.82315,44.7148833 C189.82315,44.4496978 189.82315,44.1845142 189.82315,43.9193286 C189.724056,43.8650225 189.624962,43.8107163 189.525884,43.7564122 C188.883349,44.478466 188.269609,45.2287517 187.593121,45.9175156 C185.108665,48.4470982 182.608372,50.9612191 180.104677,53.4718451 C176.973781,56.6114212 173.832956,59.7411144 170.697632,62.8762949 C165.797328,67.7764025 160.894649,72.6741518 156.00512,77.5849658 C155.633989,77.9577309 155.26258,78.114056 154.730029,78.1138731 C118.462645,78.1014711 82.1952533,78.1026299 45.9278692,78.1026259 C45.7945322,78.1026259 45.6546192,78.1283366 45.5294165,78.096429 C45.3462027,78.0497408 45.1296576,78.0067937 45.003454,77.8840716 C44.1358575,77.0404566 43.2877406,76.1768154 42.4340244,75.3189605 C39.9840843,72.8571553 37.5420019,70.3874821 35.082495,67.935257 C32.8269815,65.6864231 30.543372,63.4657195 28.289649,61.2151087 C26.2667135,59.1949704 24.2747816,57.1438641 22.2562266,55.1193038 C19.4413562,52.2960619 16.6121448,49.4870986 13.7939093,46.6671952 C12.8068254,45.6795268 11.8340511,44.6775737 10.7307587,43.5561192 C10.7307587,44.1308302 10.7307598,44.503396 10.7307598,44.8759598 C10.7307567,75.764543 10.7285278,106.653131 10.7348799,137.541714 C10.7354018,140.083017 10.5243074,142.646319 11.2247736,145.138169 C11.5775012,146.392975 11.9162855,147.672089 12.4617643,148.847351 C13.1842543,150.403983 13.9766989,151.944984 15.2500279,153.172099 C16.3253452,154.208387 17.2337522,155.455988 18.4243553,156.325106 C20.0559125,157.516121 21.8229859,158.546139 23.7867992,159.173481 C25.7453675,159.79914 27.7602315,160.246007 29.7939059,160.248178 C63.0834156,160.283733 96.3729803,160.273413 129.795878,160.273421 Z" id="Shape" fill="#FFFFFF" fill-rule="nonzero"></path>
        <path d="M152.616585,100.750452 C160.315596,105.9406 162.105661,115.94736 157.458216,123.272713 C152.369086,131.294217 142.00345,133.254016 134.481139,128.288772 C126.794631,123.215155 124.697,112.960201 129.754928,105.38781 C134.827251,97.7938751 145.020482,95.7106098 152.616585,100.750452 Z" id="Path" fill="#FFFFFF" fill-rule="nonzero"></path>
        <path d="M75,113.928622 C74.9521293,120.960418 71.8659563,126.128068 65.6589195,129.315624 C59.7903438,132.329353 52.3059331,131.20115 47.4517544,126.713242 C43.6266088,123.176719 41.7682113,118.792853 42.0230871,113.603589 C42.4676086,104.553075 50.293625,97.5594606 59.3573915,98.0216523 C67.2499373,98.4241293 73.8817768,104.550103 74.8660754,112.352767 C74.9294362,112.854973 74.9558845,113.361807 75,113.928622 Z" id="Path" fill="#FFFFFF" fill-rule="nonzero"></path>
    </g>
</svg>